<?xml version="1.0" encoding="iso-8859-1"?>
<!-- Generator: Adobe Illustrator 19.0.0, SVG Export Plug-In . SVG Version: 6.00 Build 0)  -->
<svg version="1.1" id="Capa_1" xmlns="http://www.w3.org/2000/svg" xmlns:xlink="http://www.w3.org/1999/xlink" x="0px" y="0px"
	 viewBox="0 0 338.4 338.4" style="enable-background:new 0 0 338.4 338.4;" xml:space="preserve">
<g>
	<g>
		<circle cx="156.4" cy="43.2" r="9.2"/>
	</g>
</g>
<g>
	<g>
		<circle cx="128" cy="69.6" r="9.2"/>
	</g>
</g>
<g>
	<g>
		<circle cx="187.6" cy="69.6" r="9.2"/>
	</g>
</g>
<g>
	<g>
		<circle cx="157.6" cy="92.8" r="9.2"/>
	</g>
</g>
<g>
	<g>
		<circle cx="120.8" cy="107.6" r="9.2"/>
	</g>
</g>
<g>
	<g>
		<circle cx="129.6" cy="147.2" r="9.2"/>
	</g>
</g>
<g>
	<g>
		<circle cx="226" cy="113.6" r="9.2"/>
	</g>
</g>
<g>
	<g>
		<circle cx="242" cy="142" r="9.2"/>
	</g>
</g>
<g>
	<g>
		<circle cx="211.6" cy="154" r="9.2"/>
	</g>
</g>
<g>
	<g>
		<path d="M286.8,146.8h-14.4v-11.6h14.8c4,0,7.2-3.2,7.2-7.2c0-4-3.2-7.2-7.2-7.2h-14.4V118c0-23.6-17.6-43.2-40-46.4
			C230.8,32,197.6,0,157.6,0C116,0,82.4,33.6,82,75.2H67.6c-4,0-7.2,3.2-7.2,7.2s3.2,7.2,7.2,7.2H82v22H67.6c-4,0-7.2,3.2-7.2,7.2
			s3.2,7.2,7.2,7.2H82v22H67.6c-4,0-7.2,3.2-7.2,7.2s3.2,7.2,7.2,7.2H82v8.4H60.4c-9.2,0-16.4,7.6-16.4,16.4V222
			c0,9.2,7.6,16.4,16.4,16.4h6.4l23.6,94.4c0.8,3.2,3.6,5.6,6.8,5.6h138c3.2,0,6-2.4,6.8-5.6l23.6-94.4h6.4
			c9.2,0,16.4-7.6,16.4-16.4v-34.8c0-8.8-7.2-16.4-16-16.4v-9.6h14.4c4,0,7.2-3.2,7.2-7.2S290.8,146.8,286.8,146.8z M258.8,118.4
			v52.4h-66v-52.4c0-18,14.8-32.8,32.8-32.8C244,85.6,258.8,100.4,258.8,118.4z M96,76c0-33.6,27.6-61.2,61.2-61.2
			c32.4,0,58.8,25.2,61.2,57.2c-22.4,3.6-39.6,22.8-39.6,46.4v2.8h-14.4c-4,0-7.2,3.2-7.2,7.2c0,4,3.2,7.2,7.2,7.2h14.4v11.6h-14.4
			c-4,0-7.2,3.2-7.2,7.2s3.2,7.2,7.2,7.2h14.4v9.6H96V76z M230,324.4H103.2L82,239.2h169.6L230,324.4z M272.8,185.2
			c0.8,0,2,1.2,2,2.4v34.8c0,1.2-1.2,2.4-2.4,2.4h-12H72.8h-12c-1.2,0-2.4-1.2-2.4-2.4v-34.8c0-1.2,1.2-2.4,2.4-2.4h28.4H186h80
			H272.8z"/>
	</g>
</g>
<g>
</g>
<g>
</g>
<g>
</g>
<g>
</g>
<g>
</g>
<g>
</g>
<g>
</g>
<g>
</g>
<g>
</g>
<g>
</g>
<g>
</g>
<g>
</g>
<g>
</g>
<g>
</g>
<g>
</g>
</svg>
